<svg width="31" height="26" viewBox="0 0 31 26" fill="none" xmlns="http://www.w3.org/2000/svg">
<path d="M10.8355 12.499C8.41268 10.8516 10.1666 5.27539 6.26525 5.27539C3.74212 5.27539 4.54075 8.88402 3.43068 11.203L3.41719 11.2312C3.10446 11.8847 2.7681 12.5875 2.3795 12.879C1.92486 13.2201 0.802734 13.5691 0.802734 13.5691H13.9122C13.9122 13.5691 11.8568 13.1934 10.8355 12.499Z" fill="#24B0EC" fill-opacity="0.7" stroke="#233D52"/>
<path d="M13.2443 9.42077C10.6329 10.7264 10.6337 12.3964 7.75977 13.5677H24.6148C24.6148 13.5677 23.3982 13.3587 22.6729 13.0128C21.6271 12.5141 21.167 11.5599 20.4679 10.7585C19.4282 9.5666 18.8666 8.75191 16.5886 8.75195C14.9833 8.75199 14.3145 8.88572 13.2443 9.42077Z" fill="#E77C8F" fill-opacity="0.7" stroke="#233D52"/>
<path d="M0 13.5684H28.6267" stroke="black" stroke-width="0.913379"/>
<path d="M27.4219 12.3652L28.6258 13.5692L27.4219 14.7732" stroke="black" stroke-width="0.913379"/>
<path d="M15.9775 0.75293C18.6885 0.685001 21.3218 1.66238 23.333 3.48145C25.344 5.30044 26.5795 7.82243 26.7832 10.5264C26.9519 12.7664 26.4016 14.9893 25.2324 16.8799C24.8782 17.4527 24.9197 18.1841 25.3682 18.6328L29.4473 22.7119C29.9482 23.2128 29.9482 24.0245 29.4473 24.5254C28.9464 25.0263 28.1347 25.0263 27.6338 24.5254L23.5547 20.4463C23.106 19.9978 22.3745 19.9563 21.8018 20.3105C19.9112 21.4797 17.6883 22.03 15.4482 21.8613C12.7443 21.6576 10.2223 20.4221 8.40332 18.4111C6.58426 16.4 5.60688 13.7666 5.6748 11.0557C5.74274 8.34472 6.85005 5.76323 8.76758 3.8457C10.6851 1.92817 13.2666 0.820869 15.9775 0.75293ZM16.2422 2.96973C14.0275 2.96973 11.9039 3.85002 10.3379 5.41602C8.77189 6.98202 7.8916 9.10565 7.8916 11.3203C7.89163 13.5349 8.77192 15.6586 10.3379 17.2246C11.9039 18.7905 14.0276 19.6709 16.2422 19.6709C18.4568 19.6709 20.5805 18.7906 22.1465 17.2246C23.7125 15.6586 24.5927 13.5349 24.5928 11.3203C24.5928 9.10571 23.7124 6.982 22.1465 5.41602C20.5805 3.85004 18.4568 2.96976 16.2422 2.96973Z" fill="#233D52" stroke="white" stroke-width="0.5"/>
</svg>
