<svg width="682" height="682" viewBox="0 0 682 682" fill="none" xmlns="http://www.w3.org/2000/svg">
<g filter="url(#filter0_d_463_663)">
<path d="M227.437 400.696H266.503V411.771H241.533V429.089H265.295V440.165H241.533V470.975H227.437V400.696ZM302.523 414.792H302.322L292.153 443.789H312.692L302.523 414.792ZM294.77 400.696H310.679L338.267 470.975H322.66L316.619 454.865H288.125L281.983 470.975H267.384L294.77 400.696ZM347.296 400.696H366.527C377.67 400.562 387.134 402.911 394.92 407.744C398.746 410.362 401.733 413.919 403.881 418.417C406.029 422.981 407.103 428.787 407.103 435.835C407.103 442.749 406.029 448.455 403.881 452.952C401.733 457.516 398.746 461.141 394.92 463.826C391.161 466.444 386.865 468.29 382.033 469.364C377.2 470.438 372.031 470.975 366.527 470.975H347.296V400.696ZM361.392 459.899H369.246C375.421 459.899 380.791 457.785 385.355 453.556C389.92 449.394 392.269 443.487 392.403 435.835C392.269 428.116 389.92 422.176 385.355 418.014C380.791 413.852 375.421 411.771 369.246 411.771H361.392V459.899ZM419.959 400.696H461.441V411.771H434.055V429.089H459.125V440.165H434.055V459.899H461.643V470.975H419.959V400.696Z" fill="#091723"/>
</g>
<path d="M256.688 196.522L343.329 173.54L351.626 175.669L342.815 109L256.688 196.522Z" fill="#00F688"/>
<path d="M312.051 216.053L314.694 226.553L343.55 232.28L427.914 215.759L344.725 198.284L312.051 216.053Z" fill="#DA5280"/>
<path d="M340.468 326.777L426.227 223.543L359.485 236.612L340.468 326.777Z" fill="#FF5B7E"/>
<path d="M351.703 238.078L343.259 239.767L316.826 234.48L337.385 314.366L351.703 238.078Z" fill="#E65B67"/>
<path d="M427.917 215.759L431.955 216.566L426.228 223.542L359.485 236.611L340.468 326.776L337.384 314.368L351.702 238.08L343.332 239.769L316.826 234.482L314.696 226.552L343.479 232.279L427.917 215.759Z" fill="#FF5B7E"/>
<path d="M445.905 212.09L455.303 210.255L360.365 185.584L361.613 194.542L445.905 212.09Z" fill="#00C8FF"/>
<path d="M361.612 194.538L360.364 185.58L352.581 183.524L353.976 192.923L361.612 194.538Z" fill="#00C7EE"/>
<path d="M353.977 192.922L352.582 183.524L343.33 181.101L246.557 206.726L241.638 211.865L306.692 224.935L303.534 212.379L343.257 190.646L353.977 192.922Z" fill="#00C7EE"/>
<path d="M246.557 206.728L233.561 210.179L241.637 211.867L246.557 206.728Z" fill="#00C8FF"/>
<path d="M327.545 305.409L307.133 230.957L246.558 218.842L327.545 305.409Z" fill="#00F688"/>
<path d="M200.217 513.602H211.707V516.86H204.363V521.953H211.352V525.211H204.363V534.272H200.217V513.602ZM224.234 525.152C224.194 524.145 223.928 523.306 223.434 522.634C222.921 521.943 222.111 521.588 221.006 521.568C219.92 521.588 219.081 521.924 218.489 522.575C217.897 523.246 217.561 524.105 217.482 525.152H224.234ZM226.899 533.414C225.497 534.223 223.75 534.628 221.657 534.628C216.406 534.549 213.751 531.913 213.691 526.721C213.691 524.451 214.284 522.546 215.468 521.006C216.653 519.485 218.42 518.706 220.769 518.666C223.553 518.686 225.478 519.545 226.544 521.243C227.55 522.94 228.044 525.152 228.024 527.876H217.482C217.581 529.1 218.025 530.038 218.815 530.689C219.604 531.38 220.611 531.726 221.835 531.726C222.802 531.726 223.711 531.568 224.56 531.252C225.389 530.976 226.169 530.62 226.899 530.186V533.414ZM231.805 519.821C233.503 519.071 235.27 518.686 237.106 518.666C241.548 518.607 243.739 520.749 243.68 525.092V527.047C243.68 528.527 243.7 529.801 243.739 530.867C243.779 531.992 243.838 533.127 243.917 534.272H240.422C240.304 533.345 240.245 532.584 240.245 531.992H240.185C239.712 532.821 239.05 533.463 238.201 533.917C237.333 534.391 236.425 534.628 235.477 534.628C234.095 534.608 232.881 534.213 231.834 533.443C230.729 532.673 230.166 531.558 230.147 530.097C230.147 528.952 230.403 528.024 230.916 527.313C231.39 526.603 232.002 526.079 232.753 525.744C233.542 525.369 234.381 525.122 235.27 525.003C236.178 524.905 237.046 524.855 237.876 524.855H240.067C240.067 523.631 239.791 522.773 239.238 522.279C238.685 521.805 237.816 521.568 236.632 521.568C234.895 521.588 233.325 522.141 231.923 523.227L231.805 519.821ZM233.937 529.86C233.937 530.492 234.184 530.956 234.677 531.252C235.131 531.568 235.724 531.726 236.454 531.726C237.678 531.706 238.606 531.252 239.238 530.363C239.81 529.475 240.087 528.429 240.067 527.224H238.349C238.132 527.224 237.905 527.224 237.668 527.224C237.431 527.224 237.195 527.244 236.958 527.284C236.444 527.343 235.961 527.461 235.507 527.639C235.052 527.817 234.687 528.083 234.411 528.439C234.095 528.794 233.937 529.268 233.937 529.86ZM248.882 521.924H245.95V519.022H248.882V515.971L252.85 514.698V519.022H256.374V521.924H252.85V529.031C252.83 529.702 252.959 530.275 253.235 530.748C253.492 531.262 253.985 531.528 254.716 531.548C255.466 531.548 256.068 531.41 256.522 531.133L256.641 534.272C255.851 534.509 254.874 534.628 253.709 534.628C250.511 534.549 248.902 532.9 248.882 529.682V521.924ZM273.096 534.272H269.335V532.2H269.276C268.032 533.779 266.364 534.588 264.271 534.628C262.475 534.608 261.172 534.036 260.362 532.91C259.513 531.805 259.089 530.383 259.089 528.646V519.022H263.057V527.165C263.057 527.382 263.077 527.609 263.116 527.846C263.116 528.083 263.126 528.33 263.146 528.587C263.185 529.1 263.274 529.584 263.412 530.038C263.59 530.472 263.847 530.827 264.182 531.104C264.538 531.4 265.021 531.548 265.633 531.548C266.364 531.548 266.966 531.36 267.44 530.985C267.894 530.65 268.239 530.225 268.476 529.712C268.753 529.199 268.93 528.656 269.009 528.083C269.088 527.511 269.128 526.978 269.128 526.484V519.022H273.096V534.272ZM277.281 519.022H280.805V522.486H280.864C280.983 521.697 281.417 520.877 282.167 520.028C282.898 519.16 283.855 518.706 285.04 518.666C285.435 518.666 285.839 518.706 286.254 518.785V522.782C285.839 522.565 285.247 522.457 284.477 522.457C283.687 522.457 283.075 522.674 282.641 523.108C282.207 523.523 281.881 524.066 281.664 524.737C281.466 525.369 281.348 526.04 281.309 526.751C281.269 527.442 281.249 528.083 281.249 528.676V534.272H277.281V519.022ZM297.747 525.152C297.707 524.145 297.441 523.306 296.947 522.634C296.434 521.943 295.624 521.588 294.519 521.568C293.433 521.588 292.594 521.924 292.002 522.575C291.41 523.246 291.074 524.105 290.995 525.152H297.747ZM300.412 533.414C299.01 534.223 297.263 534.628 295.17 534.628C289.919 534.549 287.264 531.913 287.204 526.721C287.204 524.451 287.797 522.546 288.981 521.006C290.166 519.485 291.933 518.706 294.282 518.666C297.066 518.686 298.991 519.545 300.057 521.243C301.063 522.94 301.557 525.152 301.537 527.876H290.995C291.094 529.1 291.538 530.038 292.328 530.689C293.117 531.38 294.124 531.726 295.348 531.726C296.315 531.726 297.224 531.568 298.073 531.252C298.902 530.976 299.682 530.62 300.412 530.186V533.414ZM321.437 517.748H321.378L318.387 526.277H324.428L321.437 517.748ZM319.157 513.602H323.836L331.95 534.272H327.36L325.583 529.534H317.202L315.396 534.272H311.102L319.157 513.602ZM334.339 512.062H338.307V534.272H334.339V512.062ZM342.581 519.022H346.549V534.272H342.581V519.022ZM342.581 512.447H346.549V516.238H342.581V512.447ZM357.279 531.193C358.523 531.173 359.421 530.699 359.974 529.771C360.507 528.883 360.773 527.787 360.773 526.484C360.773 525.142 360.516 524.026 360.003 523.138C359.45 522.23 358.601 521.766 357.456 521.746C356.134 521.785 355.216 522.289 354.702 523.256C354.15 524.224 353.883 525.329 353.903 526.573C353.903 527.679 354.189 528.705 354.762 529.653C355.058 530.107 355.413 530.472 355.828 530.748C356.242 531.045 356.726 531.193 357.279 531.193ZM364.741 519.022V532.792C364.741 533.285 364.722 533.789 364.682 534.302C364.623 534.815 364.534 535.309 364.416 535.783C364.159 536.75 363.725 537.609 363.113 538.359C362.54 539.109 361.721 539.702 360.655 540.136C359.608 540.59 358.286 540.827 356.686 540.847C355.087 540.866 353.33 540.521 351.415 539.81L351.741 536.434C352.393 536.77 353.133 537.066 353.962 537.323C354.791 537.599 355.532 537.747 356.183 537.767C357.269 537.747 358.138 537.56 358.789 537.204C359.401 536.829 359.855 536.355 360.151 535.783C360.447 535.19 360.635 534.549 360.714 533.858C360.753 533.167 360.773 532.496 360.773 531.844H360.714C360.339 532.515 359.747 533.078 358.937 533.532C358.108 534.026 357.121 534.272 355.976 534.272C353.745 534.233 352.156 533.453 351.208 531.933C350.221 530.472 349.737 528.685 349.757 526.573C349.737 524.638 350.251 522.852 351.297 521.213C352.323 519.574 353.962 518.725 356.213 518.666C358.226 518.646 359.786 519.456 360.892 521.094H360.951V519.022H364.741ZM368.838 519.022H372.599V521.094H372.658C373.921 519.456 375.59 518.646 377.663 518.666C379.459 518.686 380.782 519.249 381.631 520.354C382.44 521.46 382.845 522.891 382.845 524.648V534.272H378.877V526.129C378.877 525.635 378.867 525.132 378.847 524.618C378.827 524.105 378.729 523.641 378.551 523.227C378.413 522.773 378.166 522.407 377.811 522.131C377.435 521.874 376.932 521.746 376.3 521.746C375.59 521.746 375.017 521.914 374.583 522.249C374.148 522.585 373.793 523.009 373.517 523.523C373.26 524.036 373.082 524.579 372.984 525.152C372.865 525.744 372.806 526.297 372.806 526.81V534.272H368.838V519.022ZM386.882 519.022H390.584V521.154H390.643C391.294 520.226 392.025 519.574 392.834 519.199C393.644 518.844 394.424 518.666 395.174 518.666C397.306 518.646 398.806 519.545 399.675 521.361C400.169 520.433 400.86 519.752 401.748 519.318C402.597 518.883 403.495 518.666 404.443 518.666C406.299 518.686 407.582 519.249 408.293 520.354C408.964 521.46 409.289 522.891 409.27 524.648V534.272H405.302V525.181C405.321 524.411 405.232 523.661 405.035 522.931C404.897 522.575 404.68 522.289 404.384 522.072C404.068 521.855 403.614 521.746 403.021 521.746C402.37 521.746 401.857 521.914 401.481 522.249C401.067 522.585 400.761 523.019 400.563 523.552C400.366 524.066 400.238 524.609 400.178 525.181C400.099 525.793 400.06 526.356 400.06 526.869V534.272H396.092V525.181C396.112 524.411 396.023 523.661 395.825 522.931C395.687 522.575 395.47 522.289 395.174 522.072C394.858 521.855 394.404 521.746 393.812 521.746C393.16 521.746 392.647 521.914 392.272 522.249C391.857 522.585 391.551 523.019 391.354 523.552C391.156 524.066 391.028 524.609 390.969 525.181C390.89 525.793 390.85 526.356 390.85 526.869V534.272H386.882V519.022ZM422.823 525.152C422.783 524.145 422.517 523.306 422.023 522.634C421.51 521.943 420.701 521.588 419.595 521.568C418.509 521.588 417.67 521.924 417.078 522.575C416.486 523.246 416.15 524.105 416.071 525.152H422.823ZM425.488 533.414C424.086 534.223 422.339 534.628 420.247 534.628C414.995 534.549 412.34 531.913 412.281 526.721C412.281 524.451 412.873 522.546 414.057 521.006C415.242 519.485 417.009 518.706 419.358 518.666C422.142 518.686 424.067 519.545 425.133 521.243C426.14 522.94 426.633 525.152 426.613 527.876H416.071C416.17 529.1 416.614 530.038 417.404 530.689C418.193 531.38 419.2 531.726 420.424 531.726C421.392 531.726 422.3 531.568 423.149 531.252C423.978 530.976 424.758 530.62 425.488 530.186V533.414ZM429.713 519.022H433.474V521.094H433.533C434.797 519.456 436.465 518.646 438.538 518.666C440.334 518.686 441.657 519.249 442.506 520.354C443.315 521.46 443.72 522.891 443.72 524.648V534.272H439.752V526.129C439.752 525.635 439.742 525.132 439.722 524.618C439.703 524.105 439.604 523.641 439.426 523.227C439.288 522.773 439.041 522.407 438.686 522.131C438.311 521.874 437.807 521.746 437.176 521.746C436.465 521.746 435.892 521.914 435.458 522.249C435.024 522.585 434.668 523.009 434.392 523.523C434.135 524.036 433.958 524.579 433.859 525.152C433.74 525.744 433.681 526.297 433.681 526.81V534.272H429.713V519.022ZM449.119 521.924H446.188V519.022H449.119V515.971L453.088 514.698V519.022H456.612V521.924H453.088V529.031C453.068 529.702 453.196 530.275 453.473 530.748C453.729 531.262 454.223 531.528 454.953 531.548C455.703 531.548 456.306 531.41 456.76 531.133L456.878 534.272C456.088 534.509 455.111 534.628 453.946 534.628C450.748 534.549 449.139 532.9 449.119 529.682V521.924ZM468.871 521.924H465.94V519.022H468.871V515.971L472.84 514.698V519.022H476.364V521.924H472.84V529.031C472.82 529.702 472.948 530.275 473.225 530.748C473.481 531.262 473.975 531.528 474.705 531.548C475.455 531.548 476.058 531.41 476.512 531.133L476.63 534.272C475.84 534.509 474.863 534.628 473.698 534.628C470.5 534.549 468.891 532.9 468.871 529.682V521.924ZM478.101 526.751C478.121 524.204 478.891 522.22 480.411 520.798C481.892 519.397 483.777 518.686 486.067 518.666C488.397 518.686 490.302 519.397 491.782 520.798C493.283 522.22 494.043 524.204 494.063 526.751C494.063 528.982 493.372 530.837 491.99 532.318C490.608 533.818 488.634 534.588 486.067 534.628C483.54 534.588 481.586 533.818 480.204 532.318C478.802 530.837 478.101 528.982 478.101 526.751ZM482.247 526.277C482.247 526.573 482.267 526.869 482.306 527.165C482.346 527.501 482.395 527.817 482.454 528.113C482.573 528.745 482.77 529.317 483.046 529.83C483.343 530.344 483.737 530.748 484.231 531.045C484.705 531.38 485.317 531.548 486.067 531.548C486.837 531.548 487.479 531.39 487.992 531.074C488.485 530.778 488.88 530.373 489.176 529.86C489.473 529.347 489.67 528.774 489.769 528.142C489.867 527.53 489.917 526.909 489.917 526.277C489.917 525.053 489.611 523.997 488.999 523.108C488.347 522.22 487.37 521.766 486.067 521.746C484.804 521.766 483.856 522.23 483.224 523.138C482.573 524.026 482.247 525.073 482.247 526.277ZM191.715 549.602H197.371C200.648 549.563 203.432 550.254 205.722 551.675C206.847 552.445 207.726 553.492 208.358 554.814C208.99 556.157 209.305 557.864 209.305 559.937C209.305 561.971 208.99 563.649 208.358 564.972C207.726 566.314 206.847 567.38 205.722 568.17C204.617 568.94 203.353 569.483 201.932 569.799C200.51 570.115 198.99 570.272 197.371 570.272H191.715V549.602ZM195.861 567.015H198.171C199.987 567.015 201.566 566.393 202.909 565.149C204.251 563.925 204.942 562.188 204.982 559.937C204.942 557.667 204.251 555.92 202.909 554.696C201.566 553.472 199.987 552.86 198.171 552.86H195.861V567.015ZM222.296 561.152C222.257 560.145 221.99 559.306 221.497 558.634C220.983 557.943 220.174 557.588 219.068 557.568C217.983 557.588 217.143 557.924 216.551 558.575C215.959 559.246 215.623 560.105 215.544 561.152H222.296ZM224.961 569.414C223.56 570.223 221.813 570.628 219.72 570.628C214.468 570.549 211.813 567.913 211.754 562.721C211.754 560.451 212.346 558.546 213.531 557.006C214.715 555.485 216.482 554.706 218.831 554.666C221.615 554.686 223.54 555.545 224.606 557.243C225.613 558.94 226.106 561.152 226.087 563.876H215.544C215.643 565.1 216.087 566.038 216.877 566.689C217.667 567.38 218.673 567.726 219.898 567.726C220.865 567.726 221.773 567.568 222.622 567.252C223.451 566.976 224.231 566.62 224.961 566.186V569.414ZM238.248 558.22C237.675 558.003 237.123 557.835 236.59 557.716C236.056 557.618 235.425 557.568 234.694 557.568C234.141 557.568 233.628 557.677 233.154 557.894C232.641 558.151 232.375 558.605 232.355 559.256C232.375 559.829 232.74 560.234 233.45 560.47C233.786 560.609 234.161 560.737 234.576 560.855C234.99 560.974 235.405 561.112 235.82 561.27C236.274 561.408 236.708 561.586 237.123 561.803C237.517 562.04 237.873 562.316 238.189 562.632C238.524 562.968 238.791 563.373 238.988 563.846C239.166 564.34 239.255 564.942 239.255 565.653C239.215 567.41 238.564 568.683 237.3 569.473C236.037 570.243 234.556 570.628 232.858 570.628C231.338 570.608 229.838 570.391 228.357 569.976L228.594 566.719C229.838 567.39 231.141 567.726 232.503 567.726C233.056 567.726 233.618 567.588 234.191 567.311C234.783 567.054 235.089 566.571 235.109 565.86C235.109 565.465 235.02 565.139 234.842 564.883C234.645 564.646 234.378 564.458 234.043 564.32C233.352 564.044 232.562 563.787 231.674 563.55C231.259 563.412 230.845 563.244 230.43 563.047C230.015 562.849 229.64 562.593 229.305 562.277C228.969 561.961 228.712 561.566 228.535 561.092C228.318 560.638 228.209 560.076 228.209 559.404C228.229 557.746 228.851 556.542 230.075 555.792C231.22 555.041 232.592 554.666 234.191 554.666C235.119 554.666 235.928 554.716 236.619 554.814C237.29 554.933 237.922 555.071 238.514 555.229L238.248 558.22ZM252.235 558.309C251.9 558.131 251.525 557.993 251.11 557.894C250.676 557.795 250.153 557.746 249.541 557.746C248.317 557.766 247.349 558.2 246.638 559.049C245.888 559.918 245.513 561.092 245.513 562.573C245.513 563.994 245.859 565.169 246.55 566.097C247.221 567.045 248.247 567.528 249.629 567.548C250.202 567.548 250.774 567.459 251.347 567.282C251.9 567.143 252.344 566.995 252.68 566.837L252.857 570.124C252.304 570.302 251.712 570.421 251.08 570.48C250.449 570.578 249.718 570.628 248.889 570.628C246.402 570.608 244.536 569.838 243.292 568.318C242.009 566.837 241.367 564.922 241.367 562.573C241.367 560.303 242.009 558.427 243.292 556.946C244.556 555.446 246.372 554.686 248.741 554.666C250.281 554.666 251.564 554.834 252.591 555.17L252.235 558.309ZM255.592 555.022H259.116V558.486H259.175C259.293 557.697 259.728 556.877 260.478 556.028C261.208 555.16 262.166 554.706 263.35 554.666C263.745 554.666 264.15 554.706 264.564 554.785V558.782C264.15 558.565 263.558 558.457 262.788 558.457C261.998 558.457 261.386 558.674 260.952 559.108C260.517 559.523 260.192 560.066 259.974 560.737C259.777 561.369 259.659 562.04 259.619 562.751C259.58 563.442 259.56 564.083 259.56 564.676V570.272H255.592V555.022ZM267.102 555.022H271.07V570.272H267.102V555.022ZM267.102 548.447H271.07V552.238H267.102V548.447ZM275.255 555.022H279.045V557.183H279.104C279.953 555.564 281.533 554.725 283.843 554.666C286.152 554.706 287.811 555.495 288.818 557.035C289.785 558.575 290.259 560.431 290.239 562.603C290.259 564.754 289.785 566.61 288.818 568.17C287.811 569.769 286.123 570.588 283.754 570.628C282.925 570.628 282.155 570.48 281.444 570.184C280.713 569.887 279.993 569.335 279.282 568.525H279.223V576.491H275.255V555.022ZM282.806 557.746C281.543 557.785 280.634 558.328 280.082 559.375C279.529 560.382 279.253 561.458 279.253 562.603C279.233 563.748 279.499 564.833 280.052 565.86C280.328 566.334 280.684 566.729 281.118 567.045C281.552 567.38 282.095 567.548 282.747 567.548C283.398 567.548 283.951 567.38 284.405 567.045C284.84 566.729 285.175 566.334 285.412 565.86C285.669 565.347 285.856 564.804 285.975 564.231C286.054 563.659 286.093 563.116 286.093 562.603C286.093 561.497 285.876 560.421 285.442 559.375C285.205 558.881 284.869 558.486 284.435 558.19C284.001 557.894 283.458 557.746 282.806 557.746ZM294.661 557.924H291.729V555.022H294.661V551.971L298.629 550.698V555.022H302.153V557.924H298.629V565.031C298.61 565.702 298.738 566.275 299.014 566.748C299.271 567.262 299.765 567.528 300.495 567.548C301.245 567.548 301.847 567.41 302.301 567.133L302.42 570.272C301.63 570.509 300.653 570.628 299.488 570.628C296.29 570.549 294.681 568.9 294.661 565.682V557.924ZM304.957 555.022H308.925V570.272H304.957V555.022ZM304.957 548.447H308.925V552.238H304.957V548.447ZM312.133 562.751C312.153 560.204 312.923 558.22 314.443 556.798C315.923 555.397 317.809 554.686 320.099 554.666C322.428 554.686 324.334 555.397 325.814 556.798C327.315 558.22 328.075 560.204 328.095 562.751C328.095 564.982 327.404 566.837 326.022 568.318C324.64 569.818 322.665 570.588 320.099 570.628C317.572 570.588 315.617 569.818 314.235 568.318C312.834 566.837 312.133 564.982 312.133 562.751ZM316.279 562.277C316.279 562.573 316.299 562.869 316.338 563.165C316.377 563.501 316.427 563.817 316.486 564.113C316.605 564.745 316.802 565.317 317.078 565.83C317.374 566.344 317.769 566.748 318.263 567.045C318.737 567.38 319.349 567.548 320.099 567.548C320.869 567.548 321.51 567.39 322.024 567.074C322.517 566.778 322.912 566.373 323.208 565.86C323.504 565.347 323.702 564.774 323.801 564.142C323.899 563.53 323.949 562.909 323.949 562.277C323.949 561.053 323.643 559.997 323.031 559.108C322.379 558.22 321.402 557.766 320.099 557.746C318.835 557.766 317.888 558.23 317.256 559.138C316.605 560.026 316.279 561.073 316.279 562.277ZM331.214 555.022H334.975V557.094H335.034C336.297 555.456 337.965 554.646 340.038 554.666C341.835 554.686 343.158 555.249 344.007 556.354C344.816 557.46 345.221 558.891 345.221 560.648V570.272H341.253V562.129C341.253 561.635 341.243 561.132 341.223 560.618C341.203 560.105 341.105 559.641 340.927 559.227C340.789 558.773 340.542 558.407 340.186 558.131C339.811 557.874 339.308 557.746 338.676 557.746C337.965 557.746 337.393 557.914 336.959 558.249C336.524 558.585 336.169 559.009 335.893 559.523C335.636 560.036 335.458 560.579 335.36 561.152C335.241 561.744 335.182 562.297 335.182 562.81V570.272H331.214V555.022ZM357.915 549.602H370.115V552.86H362.06V557.953H369.434V561.211H362.06V567.015H370.174V570.272H357.915V549.602ZM372.326 555.022H376.591L380.381 566.127H380.44L384.112 555.022H388.081L382.454 570.272H377.982L372.326 555.022ZM391.15 555.821C392.848 555.071 394.615 554.686 396.451 554.666C400.893 554.607 403.085 556.749 403.025 561.092V563.047C403.025 564.527 403.045 565.801 403.085 566.867C403.124 567.992 403.183 569.127 403.262 570.272H399.768C399.65 569.345 399.59 568.584 399.59 567.992H399.531C399.057 568.821 398.396 569.463 397.547 569.917C396.678 570.391 395.77 570.628 394.823 570.628C393.441 570.608 392.226 570.213 391.18 569.443C390.075 568.673 389.512 567.558 389.492 566.097C389.492 564.952 389.749 564.024 390.262 563.313C390.736 562.603 391.348 562.079 392.098 561.744C392.888 561.369 393.727 561.122 394.615 561.003C395.523 560.905 396.392 560.855 397.221 560.855H399.413C399.413 559.631 399.136 558.773 398.583 558.279C398.031 557.805 397.162 557.568 395.977 557.568C394.24 557.588 392.671 558.141 391.269 559.227L391.15 555.821ZM393.283 565.86C393.283 566.492 393.529 566.956 394.023 567.252C394.477 567.568 395.069 567.726 395.8 567.726C397.024 567.706 397.952 567.252 398.583 566.363C399.156 565.475 399.432 564.429 399.413 563.224H397.695C397.478 563.224 397.251 563.224 397.014 563.224C396.777 563.224 396.54 563.244 396.303 563.284C395.79 563.343 395.306 563.461 394.852 563.639C394.398 563.817 394.033 564.083 393.756 564.439C393.441 564.794 393.283 565.268 393.283 565.86ZM407.013 548.062H410.982V570.272H407.013V548.062ZM429.174 570.272H425.413V568.2H425.354C424.11 569.779 422.442 570.588 420.349 570.628C418.552 570.608 417.249 570.036 416.44 568.91C415.591 567.805 415.167 566.383 415.167 564.646V555.022H419.135V563.165C419.135 563.382 419.154 563.609 419.194 563.846C419.194 564.083 419.204 564.33 419.224 564.587C419.263 565.1 419.352 565.584 419.49 566.038C419.668 566.472 419.924 566.827 420.26 567.104C420.615 567.4 421.099 567.548 421.711 567.548C422.442 567.548 423.044 567.36 423.517 566.985C423.972 566.65 424.317 566.225 424.554 565.712C424.83 565.199 425.008 564.656 425.087 564.083C425.166 563.511 425.205 562.978 425.205 562.484V555.022H429.174V570.272ZM433.951 555.821C435.649 555.071 437.416 554.686 439.252 554.666C443.694 554.607 445.885 556.749 445.826 561.092V563.047C445.826 564.527 445.846 565.801 445.885 566.867C445.925 567.992 445.984 569.127 446.063 570.272H442.569C442.45 569.345 442.391 568.584 442.391 567.992H442.332C441.858 568.821 441.197 569.463 440.348 569.917C439.479 570.391 438.571 570.628 437.623 570.628C436.241 570.608 435.027 570.213 433.981 569.443C432.875 568.673 432.313 567.558 432.293 566.097C432.293 564.952 432.549 564.024 433.063 563.313C433.537 562.603 434.149 562.079 434.899 561.744C435.688 561.369 436.527 561.122 437.416 561.003C438.324 560.905 439.193 560.855 440.022 560.855H442.213C442.213 559.631 441.937 558.773 441.384 558.279C440.831 557.805 439.963 557.568 438.778 557.568C437.041 557.588 435.471 558.141 434.07 559.227L433.951 555.821ZM436.083 565.86C436.083 566.492 436.33 566.956 436.824 567.252C437.278 567.568 437.87 567.726 438.6 567.726C439.824 567.706 440.752 567.252 441.384 566.363C441.957 565.475 442.233 564.429 442.213 563.224H440.496C440.279 563.224 440.051 563.224 439.815 563.224C439.578 563.224 439.341 563.244 439.104 563.284C438.591 563.343 438.107 563.461 437.653 563.639C437.199 563.817 436.833 564.083 436.557 564.439C436.241 564.794 436.083 565.268 436.083 565.86ZM451.028 557.924H448.096V555.022H451.028V551.971L454.996 550.698V555.022H458.52V557.924H454.996V565.031C454.977 565.702 455.105 566.275 455.381 566.748C455.638 567.262 456.132 567.528 456.862 567.548C457.612 567.548 458.214 567.41 458.668 567.133L458.787 570.272C457.997 570.509 457.02 570.628 455.855 570.628C452.657 570.549 451.048 568.9 451.028 565.682V557.924ZM461.324 555.022H465.292V570.272H461.324V555.022ZM461.324 548.447H465.292V552.238H461.324V548.447ZM468.5 562.751C468.52 560.204 469.289 558.22 470.81 556.798C472.29 555.397 474.176 554.686 476.466 554.666C478.795 554.686 480.701 555.397 482.181 556.798C483.682 558.22 484.442 560.204 484.461 562.751C484.461 564.982 483.77 566.837 482.388 568.318C481.007 569.818 479.032 570.588 476.466 570.628C473.939 570.588 471.984 569.818 470.602 568.318C469.201 566.837 468.5 564.982 468.5 562.751ZM472.646 562.277C472.646 562.573 472.665 562.869 472.705 563.165C472.744 563.501 472.794 563.817 472.853 564.113C472.971 564.745 473.169 565.317 473.445 565.83C473.741 566.344 474.136 566.748 474.63 567.045C475.104 567.38 475.716 567.548 476.466 567.548C477.236 567.548 477.877 567.39 478.391 567.074C478.884 566.778 479.279 566.373 479.575 565.86C479.871 565.347 480.069 564.774 480.167 564.142C480.266 563.53 480.316 562.909 480.316 562.277C480.316 561.053 480.01 559.997 479.398 559.108C478.746 558.22 477.769 557.766 476.466 557.746C475.202 557.766 474.255 558.23 473.623 559.138C472.971 560.026 472.646 561.073 472.646 562.277ZM487.581 555.022H491.341V557.094H491.401C492.664 555.456 494.332 554.646 496.405 554.666C498.202 554.686 499.525 555.249 500.374 556.354C501.183 557.46 501.588 558.891 501.588 560.648V570.272H497.62V562.129C497.62 561.635 497.61 561.132 497.59 560.618C497.57 560.105 497.471 559.641 497.294 559.227C497.156 558.773 496.909 558.407 496.553 558.131C496.178 557.874 495.675 557.746 495.043 557.746C494.332 557.746 493.76 557.914 493.326 558.249C492.891 558.585 492.536 559.009 492.259 559.523C492.003 560.036 491.825 560.579 491.726 561.152C491.608 561.744 491.549 562.297 491.549 562.81V570.272H487.581V555.022Z" fill="#091723"/>
<defs>
<filter id="filter0_d_463_663" x="203.746" y="400.495" width="281.588" height="117.861" filterUnits="userSpaceOnUse" color-interpolation-filters="sRGB">
<feFlood flood-opacity="0" result="BackgroundImageFix"/>
<feColorMatrix in="SourceAlpha" type="matrix" values="0 0 0 0 0 0 0 0 0 0 0 0 0 0 0 0 0 0 127 0" result="hardAlpha"/>
<feOffset dy="23.6907"/>
<feGaussianBlur stdDeviation="11.8454"/>
<feComposite in2="hardAlpha" operator="out"/>
<feColorMatrix type="matrix" values="0 0 0 0 0 0 0 0 0 0 0 0 0 0 0 0 0 0 0.03 0"/>
<feBlend mode="normal" in2="BackgroundImageFix" result="effect1_dropShadow_463_663"/>
<feBlend mode="normal" in="SourceGraphic" in2="effect1_dropShadow_463_663" result="shape"/>
</filter>
</defs>
</svg>
