<svg width="752" height="752" viewBox="0 0 752 752" fill="none" xmlns="http://www.w3.org/2000/svg">
<path d="M133.117 323.962L372.938 260.349L395.904 266.243L371.516 81.7021L133.117 323.962Z" fill="#00F688"/>
<path d="M286.36 378.026L293.676 407.09L373.549 422.942L607.07 377.213L376.801 328.843L286.36 378.026Z" fill="#DA5280"/>
<path d="M365.015 684.509L602.398 398.756L417.654 434.932L365.015 684.509Z" fill="#FF5B7E"/>
<path d="M396.116 438.992L372.744 443.666L299.578 429.033L356.485 650.157L396.116 438.992Z" fill="#E65B67"/>
<path d="M607.077 377.212L618.255 379.448L602.403 398.755L417.659 434.932L365.02 684.508L356.484 650.161L396.116 438.996L372.947 443.671L299.578 429.038L293.684 407.088L373.353 422.941L607.077 377.212Z" fill="#FF5B7E"/>
<path d="M656.865 367.053L682.879 361.972L420.092 293.684L423.547 318.479L656.865 367.053Z" fill="#00C8FF"/>
<path d="M423.547 318.474L420.092 293.678L398.548 287.987L402.409 314.002L423.547 318.474Z" fill="#00C7EE"/>
<path d="M402.412 314L398.55 287.985L372.942 281.278L105.074 352.209L91.457 366.435L271.526 402.612L262.787 367.858L372.739 307.699L402.412 314Z" fill="#00C7EE"/>
<path d="M105.073 352.214L69.0991 361.766L91.4559 366.441L105.073 352.214Z" fill="#00C8FF"/>
<path d="M329.245 625.364L272.744 419.28L105.073 385.746L329.245 625.364Z" fill="#00F688"/>
</svg>
