<svg version="1.2" xmlns="http://www.w3.org/2000/svg" viewBox="0 0 752 218" width="3300" height="1000"><style>.a{fill:#353333}.b{fill:#091723}.c{fill:#00f688}.d{fill:#da5280}.e{fill:#ff5b7e}.f{fill:#e65b67}.g{fill:#00c8ff}.h{fill:#00c7ee}</style><path class="a" d="m261.3 177.5h8.7v2h-6.4v4.9h6.2v2.1h-6.2v7.5h-2.4zm21.1 16q-0.3 0.2-0.7 0.3-0.4 0.1-0.8 0.2-0.4 0.2-1 0.2-0.6 0.1-1.3 0.1-1.6 0-2.8-0.5-1.2-0.4-2-1.3-0.7-0.8-1.1-2-0.4-1.2-0.4-2.7 0-1.4 0.4-2.5 0.4-1.1 1.2-1.9 0.7-0.8 1.8-1.3 1-0.4 2.3-0.4 1.5 0 2.5 0.5 1 0.5 1.6 1.4 0.7 0.9 0.9 2.2 0.3 1.2 0.3 2.7h-8.6q0 0.9 0.3 1.6 0.3 0.8 0.9 1.3 0.5 0.5 1.3 0.8 0.7 0.3 1.5 0.3 0.5 0 1.1-0.1 0.6-0.1 1.1-0.3 0.5-0.2 0.9-0.4 0.4-0.2 0.6-0.4zm-1.5-6.7q0-0.7-0.2-1.3-0.2-0.6-0.5-1.1-0.4-0.4-1-0.7-0.6-0.3-1.3-0.3-0.8 0-1.4 0.4-0.6 0.3-1 0.8-0.3 0.4-0.6 1-0.1 0.6-0.2 1.2zm5.9-4q0.8-0.5 1.8-0.8 1-0.4 2.2-0.4 2.6 0 3.7 1.3 1.1 1.3 1.1 3.7v5q0 1.1 0.1 1.6 0 0.5 0 0.8h-2.1v-1.6q-0.2 0.3-0.5 0.7-0.4 0.3-0.8 0.6-0.5 0.2-1.1 0.4-0.6 0.2-1.3 0.2-1 0-1.8-0.2-0.8-0.2-1.4-0.7-0.6-0.5-1-1.2-0.3-0.7-0.3-1.7 0-1.1 0.6-1.9 0.5-0.7 1.4-1.2 0.8-0.4 1.8-0.6 1-0.3 1.8-0.3 0.7 0 1.2 0 0.5 0 1.2 0.1 0-1.6-0.7-2.4-0.6-0.8-2.3-0.8-0.9 0-1.9 0.4-0.9 0.3-1.6 0.9zm6.6 5.4q-0.3 0-0.7 0-0.3 0-0.7 0-0.4 0-1.2 0.1-0.7 0-1.3 0.3-0.7 0.2-1.2 0.7-0.5 0.4-0.5 1.2 0 0.5 0.2 0.9 0.2 0.3 0.6 0.6 0.3 0.2 0.7 0.4 0.4 0.1 0.8 0.1 1.6 0 2.5-0.9 0.8-0.9 0.8-2.3zm12.4-4.5h-3.2v6.6q0 1.1 0.6 1.6 0.6 0.6 1.3 0.6 0.5 0 0.9-0.2 0.4-0.1 0.6-0.3v1.9q-0.4 0.1-0.9 0.2-0.4 0.2-1 0.2-1.7 0-2.7-0.9-1-0.8-1-2.7v-7h-2.7v-1.8h2.7v-2.8l2.2-0.7v3.5h3.2zm13.5 10.3h-2.1v-1.9h-0.1q-0.5 1-1.6 1.6-1.1 0.6-2.4 0.6-2.3 0-3.4-1.4-1.1-1.4-1.1-3.8v-7.2h2.3v6.2q0 2.2 0.5 3.2 0.5 1.1 2 1.2 1 0 1.6-0.4 0.8-0.4 1.2-1 0.5-0.7 0.7-1.6 0.2-0.9 0.2-2v-5.6h2.2zm3.8-12.1h2.1v1.9q0.5-1 1.3-1.6 0.9-0.6 1.9-0.6 0.5 0 0.8 0.1 0.3 0 0.7 0.1v2q-0.3-0.1-0.7-0.2-0.3 0-0.6 0-1.5 0-2.4 1.3-0.9 1.3-0.9 3.6v5.5h-2.2zm18.5 11.6q-0.4 0.1-0.7 0.2-0.4 0.2-0.8 0.3-0.4 0.1-1 0.2-0.6 0.1-1.3 0.1-1.6 0-2.8-0.5-1.2-0.5-2-1.3-0.7-0.9-1.1-2.1-0.4-1.2-0.4-2.7 0-1.3 0.4-2.4 0.4-1.2 1.1-2 0.8-0.8 1.9-1.2 1-0.5 2.3-0.5 1.5 0 2.5 0.5 1 0.5 1.6 1.5 0.7 0.9 0.9 2.1 0.3 1.3 0.3 2.7h-8.6q0 0.9 0.3 1.7 0.3 0.7 0.9 1.2 0.5 0.6 1.2 0.9 0.8 0.3 1.6 0.3 0.5 0 1.1-0.2 0.6-0.1 1.1-0.3 0.5-0.2 0.9-0.4 0.4-0.2 0.6-0.4zm-1.5-6.7q0-0.6-0.2-1.3-0.2-0.6-0.5-1-0.4-0.5-1-0.8-0.6-0.2-1.3-0.2-0.8 0-1.4 0.3-0.6 0.3-1 0.8-0.3 0.5-0.6 1.1-0.2 0.6-0.2 1.1zm17.4-9.3h2.5l6.9 16.5h-2.5l-1.7-4.1h-8.1l-1.7 4.1h-2.5zm1.2 2.3l-3.3 8.2h6.6zm10.7-3.5h2.3v17.8h-2.3zm9 3h-2.5v-2.5h2.5zm-2.4 2.7h2.3v12h-2.3zm17 11.6q0 2.7-1.5 4.3-1.5 1.5-4.7 1.5-0.5 0-1-0.1-0.4 0-0.9-0.1-0.6-0.1-1.1-0.2-0.6-0.2-1.3-0.5l0.2-2q0.6 0.3 1.2 0.5 0.5 0.2 1 0.3 0.5 0.2 1 0.2 0.5 0.1 1.1 0.1 1.8 0 2.8-1.1 1-1.2 1-3.1v-1.2h-0.1q-0.7 1-1.8 1.5-1 0.4-2.2 0.4-1.3 0-2.3-0.5-1-0.5-1.6-1.3-0.6-0.8-1-1.9-0.3-1-0.3-2.2 0-1.2 0.4-2.3 0.3-1.2 1-2.1 0.6-0.9 1.6-1.5 1.1-0.5 2.4-0.6 1.6 0.1 2.6 0.6 0.9 0.5 1.4 1.5h0.1v-1.8h2zm-5.7-1.2q0.7 0 1.4-0.4 0.6-0.3 1.1-0.8 0.5-0.6 0.7-1.3 0.3-0.8 0.3-1.6 0-1-0.2-1.8-0.2-0.9-0.7-1.5-0.4-0.7-1.1-1-0.7-0.4-1.5-0.4-0.9 0-1.5 0.4-0.6 0.4-1.1 1.1-0.4 0.6-0.6 1.4-0.2 0.8-0.2 1.6 0 0.8 0.2 1.6 0.3 0.8 0.7 1.4 0.4 0.6 1 0.9 0.7 0.4 1.5 0.4zm9.5-10.3h2.2v1.9q0.5-1 1.6-1.6 1.1-0.6 2.4-0.6 2.3 0 3.4 1.4 1.1 1.3 1.1 3.8v7.2h-2.2v-6.3q0-2.1-0.6-3.2-0.5-1-2-1.1-0.9 0-1.6 0.4-0.7 0.3-1.2 1-0.4 0.6-0.6 1.6-0.3 0.9-0.3 2v5.6h-2.2zm14.5 0h2.1v1.7q0.6-1.1 1.6-1.5 0.9-0.5 2.2-0.5 1.1 0 2 0.5 1 0.6 1.5 1.8 0.3-0.6 0.8-1.1 0.4-0.4 1-0.7 0.5-0.3 1-0.4 0.5-0.1 0.9-0.1 1.2 0 2 0.3 0.8 0.4 1.3 1 0.5 0.6 0.7 1.5 0.2 0.8 0.2 1.8v7.7h-2.2v-7.2q0-0.5-0.1-1.1-0.1-0.6-0.3-1.1-0.2-0.5-0.7-0.8-0.4-0.3-1.1-0.3-0.8 0-1.4 0.4-0.6 0.3-1 1-0.4 0.6-0.6 1.4-0.1 0.8-0.1 1.6v6.1h-2.3v-7.2q0-0.5-0.1-1.1 0-0.6-0.3-1.1-0.2-0.5-0.6-0.8-0.5-0.3-1.1-0.3-0.9 0-1.5 0.4-0.6 0.3-1 1-0.3 0.6-0.5 1.4-0.2 0.8-0.2 1.6v6.1h-2.2zm30.3 11.6q-0.3 0.1-0.7 0.3-0.3 0.1-0.8 0.2-0.4 0.1-1 0.2-0.6 0.1-1.3 0.1-1.6 0-2.8-0.5-1.2-0.4-1.9-1.3-0.8-0.8-1.2-2.1-0.4-1.2-0.4-2.6 0-1.4 0.5-2.5 0.4-1.1 1.1-1.9 0.7-0.8 1.8-1.3 1-0.4 2.3-0.4 1.5 0 2.5 0.5 1.1 0.5 1.7 1.4 0.6 0.9 0.9 2.2 0.2 1.2 0.2 2.7h-8.6q0 0.9 0.3 1.6 0.4 0.7 0.9 1.3 0.6 0.5 1.3 0.8 0.7 0.3 1.5 0.3 0.5 0 1.1-0.1 0.6-0.2 1.1-0.3 0.5-0.2 0.9-0.4 0.4-0.2 0.6-0.4zm-1.4-6.7q0-0.7-0.2-1.3-0.2-0.6-0.6-1.1-0.4-0.5-1-0.7-0.5-0.3-1.2-0.3-0.9 0-1.5 0.3-0.5 0.3-0.9 0.8-0.4 0.5-0.6 1.1-0.2 0.6-0.3 1.2zm5.4-4.9h2.1v1.9h0.1q0.5-1 1.6-1.6 1-0.6 2.3-0.6 2.4 0 3.5 1.4 1 1.4 1 3.8v7.2h-2.2v-6.3q0-2.1-0.5-3.1-0.6-1.1-2-1.2-1 0-1.7 0.4-0.7 0.4-1.1 1-0.5 0.7-0.7 1.6-0.2 0.9-0.2 2v5.6h-2.2zm20.9 1.8h-3.2v6.6q0 1.1 0.5 1.6 0.6 0.6 1.3 0.6 0.6 0 0.9-0.2 0.4-0.1 0.7-0.3v1.9q-0.4 0.1-0.9 0.2-0.5 0.2-1 0.2-1.8 0-2.8-0.9-1-0.8-1-2.6v-7.1h-2.7v-1.8h2.7v-2.8l2.3-0.7v3.5h3.2zm15.8 0h-3.2v6.6q0 1.1 0.5 1.6 0.6 0.6 1.3 0.6 0.6 0 0.9-0.2 0.4-0.1 0.7-0.3v1.9q-0.4 0.1-0.9 0.2-0.5 0.2-1 0.2-1.8 0-2.8-0.9-1-0.8-1-2.6v-7.1h-2.7v-1.8h2.7v-2.8l2.3-0.7v3.5h3.2zm1.9 4.2q0-1.3 0.5-2.5 0.4-1.2 1.2-2 0.9-0.8 2-1.3 1.1-0.5 2.5-0.5 1.4 0 2.5 0.5 1.2 0.5 2 1.3 0.8 0.8 1.2 2 0.4 1.2 0.4 2.5 0 1.3-0.4 2.5-0.5 1.1-1.3 2-0.8 0.9-1.9 1.4-1.1 0.5-2.5 0.5-1.4 0-2.5-0.5-1.1-0.5-1.9-1.4-0.9-0.9-1.3-2-0.5-1.2-0.5-2.5zm2.4 0q0 0.8 0.2 1.6 0.3 0.9 0.7 1.5 0.5 0.7 1.2 1.1 0.7 0.4 1.7 0.4 1 0 1.7-0.4 0.7-0.4 1.2-1.1 0.4-0.6 0.6-1.5 0.3-0.8 0.3-1.6 0-0.8-0.3-1.6-0.2-0.9-0.7-1.5-0.5-0.6-1.2-1-0.7-0.4-1.6-0.4-0.9 0-1.6 0.4-0.7 0.4-1.2 1-0.5 0.6-0.7 1.5-0.3 0.8-0.3 1.6zm19.6-10.5h4.9q1.8 0 3.4 0.6 1.6 0.6 2.8 1.6 1.2 1 1.9 2.6 0.7 1.4 0.7 3.4 0 2.1-0.6 3.6-0.6 1.6-1.8 2.7-1.1 1-2.7 1.6-1.7 0.5-3.7 0.5h-4.9zm2.4 14.4h2.5q3 0 4.7-1.5 1.6-1.5 1.6-4.7 0-1.4-0.5-2.6-0.4-1.1-1.3-1.9-0.8-0.8-1.9-1.2-1.1-0.4-2.4-0.4h-2.7zm23.9 1.5q-0.3 0.2-0.7 0.3-0.4 0.1-0.8 0.2-0.4 0.2-1 0.2-0.6 0.1-1.3 0.1-1.6 0-2.8-0.4-1.2-0.5-2-1.4-0.7-0.8-1.1-2-0.4-1.2-0.4-2.7 0-1.4 0.4-2.5 0.4-1.1 1.2-1.9 0.7-0.8 1.8-1.3 1-0.4 2.3-0.4 1.5 0 2.5 0.5 1 0.5 1.7 1.4 0.6 0.9 0.8 2.2 0.3 1.3 0.3 2.7h-8.6q0 0.9 0.3 1.6 0.3 0.8 0.9 1.3 0.5 0.5 1.3 0.8 0.7 0.3 1.5 0.3 0.5 0 1.1-0.1 0.6-0.1 1.1-0.3 0.5-0.2 0.9-0.4 0.4-0.2 0.6-0.4zm-1.5-6.7q0-0.7-0.2-1.3-0.2-0.6-0.5-1.1-0.4-0.4-1-0.7-0.6-0.2-1.3-0.2-0.8 0-1.4 0.3-0.6 0.3-1 0.8-0.3 0.4-0.5 1-0.2 0.6-0.3 1.2zm4.4 4.9q0.4 0.2 0.7 0.3 0.4 0.2 0.8 0.3 0.4 0.1 0.7 0.2 0.4 0 0.6 0 0.4 0 0.8-0.1 0.4-0.1 0.7-0.3 0.4-0.2 0.6-0.5 0.2-0.3 0.2-0.8 0-0.6-0.4-1-0.4-0.3-1-0.6-0.6-0.4-1.2-0.7-0.7-0.3-1.3-0.7-0.6-0.4-1-1-0.4-0.6-0.4-1.4 0-1 0.4-1.7 0.3-0.7 0.9-1.1 0.5-0.5 1.3-0.7 0.8-0.2 1.7-0.2 0.8 0 1.5 0.1 0.6 0.1 1.3 0.3l-0.2 2q-0.2-0.1-0.5-0.2-0.3-0.2-0.7-0.3-0.3-0.1-0.7-0.1-0.3 0-0.4 0-0.9 0-1.5 0.3-0.7 0.4-0.7 1.1 0 0.6 0.4 1 0.4 0.4 1 0.7 0.6 0.3 1.2 0.6 0.7 0.3 1.3 0.7 0.6 0.4 1 1 0.4 0.7 0.4 1.6 0 1-0.4 1.7-0.4 0.7-0.9 1.2-0.6 0.5-1.4 0.7-0.8 0.2-1.6 0.2-0.8 0-1.7-0.1-0.8-0.2-1.6-0.6zm17.8-7.6q-0.6-0.3-1.3-0.4-0.6-0.2-1.1-0.2-0.9 0-1.7 0.4-0.7 0.4-1.2 1-0.5 0.7-0.7 1.5-0.3 0.8-0.3 1.7 0 0.8 0.2 1.6 0.3 0.8 0.7 1.4 0.5 0.7 1.3 1.1 0.8 0.4 1.8 0.4 0.6 0 1.2-0.2 0.7-0.2 1.2-0.5l0.2 2q-0.7 0.3-1.5 0.4-0.7 0.1-1.3 0.1-1.4 0-2.5-0.5-1.1-0.5-2-1.4-0.8-0.8-1.2-2-0.5-1.1-0.5-2.4 0-1.4 0.5-2.6 0.4-1.1 1.2-2 0.8-0.8 2-1.3 1.1-0.5 2.5-0.5 0.7 0 1.4 0.2 0.8 0.1 1.3 0.3zm2.8-2h2.1v1.9h0.1q0.4-1 1.3-1.6 0.9-0.6 1.8-0.6 0.5 0 0.8 0 0.3 0.1 0.7 0.2v2q-0.3-0.2-0.6-0.2-0.4-0.1-0.6-0.1-1.5 0-2.4 1.4-0.9 1.3-0.9 3.6v5.5h-2.3zm11.9-2.7h-2.5v-2.5h2.5zm-2.4 2.7h2.3v12h-2.3zm6.3 0h2.2v1.7q0.2-0.3 0.6-0.6 0.4-0.4 0.9-0.7 0.5-0.3 1.2-0.5 0.6-0.2 1.4-0.2 1.3 0 2.3 0.5 1 0.5 1.6 1.4 0.7 0.8 1 1.9 0.3 1.2 0.3 2.4 0 1.2-0.3 2.4-0.3 1.2-0.9 2.1-0.6 0.9-1.6 1.5-1 0.5-2.4 0.5-1.6 0-2.5-0.5-1-0.6-1.5-1.4v6.6h-2.3zm9.2 6q0-0.8-0.2-1.6-0.2-0.8-0.6-1.5-0.4-0.6-1-1-0.6-0.4-1.5-0.4-0.9 0-1.6 0.4-0.7 0.4-1.1 1-0.5 0.7-0.7 1.5-0.2 0.8-0.2 1.7 0 0.7 0.2 1.5 0.2 0.8 0.6 1.5 0.4 0.6 1.1 1.1 0.7 0.4 1.6 0.4 0.9 0 1.6-0.5 0.6-0.4 1-1.1 0.4-0.7 0.6-1.5 0.2-0.8 0.2-1.5zm11.8-4.2h-3.2v6.6q0 1.1 0.5 1.6 0.6 0.6 1.3 0.6 0.5 0 0.9-0.2 0.4-0.1 0.6-0.3v1.9q-0.3 0.1-0.8 0.2-0.5 0.2-1.1 0.2-1.7 0-2.7-0.9-1-0.8-1-2.6v-7.1h-2.7v-1.8h2.7v-2.8l2.3-0.7v3.5h3.2zm5.4-4.5h-2.5v-2.5h2.5zm-2.4 2.7h2.2v12.1h-2.2zm5.5 6q0-1.4 0.5-2.5 0.4-1.2 1.2-2 0.8-0.9 2-1.3 1.1-0.5 2.5-0.5 1.4 0 2.5 0.5 1.1 0.4 1.9 1.3 0.8 0.8 1.3 2 0.4 1.1 0.4 2.5 0 1.3-0.4 2.5-0.5 1.1-1.3 2-0.8 0.8-1.9 1.3-1.2 0.5-2.5 0.5-1.4 0-2.5-0.5-1.1-0.5-2-1.3-0.8-0.9-1.2-2-0.5-1.2-0.5-2.5zm2.4 0q0 0.8 0.2 1.6 0.2 0.8 0.7 1.5 0.5 0.6 1.2 1 0.7 0.4 1.7 0.4 1 0 1.7-0.4 0.7-0.4 1.1-1 0.5-0.7 0.7-1.5 0.3-0.8 0.3-1.6 0-0.9-0.3-1.7-0.3-0.8-0.7-1.4-0.5-0.7-1.2-1-0.7-0.4-1.6-0.4-0.9 0-1.6 0.4-0.7 0.3-1.2 1-0.5 0.6-0.7 1.4-0.3 0.8-0.3 1.7zm12.9-6h2.2v1.9q0.5-1.1 1.6-1.6 1.1-0.6 2.4-0.6 2.3 0 3.4 1.4 1.1 1.3 1.1 3.8v7.1h-2.2v-6.2q0-2.1-0.6-3.2-0.5-1-2-1.1-0.9 0-1.6 0.4-0.7 0.3-1.2 1-0.4 0.6-0.6 1.5-0.3 1-0.3 2.1v5.5h-2.2zm21.4-4.4h9.3v2.1h-6.9v4.8h6.3v2.1h-6.3v5.4h6.9v2.1h-9.3zm18.2 16.6h-2.6l-4.4-12.1h2.5l3.2 9.8h0.1l3.3-9.8h2.2zm7.1-11.2q0.8-0.5 1.8-0.9 1-0.3 2.2-0.3 2.6 0 3.7 1.3 1.1 1.2 1.1 3.7v5q0 1.1 0.1 1.6 0 0.5 0 0.8h-2v-1.6h-0.1q-0.2 0.3-0.5 0.6-0.3 0.3-0.8 0.6-0.5 0.3-1.1 0.5-0.6 0.2-1.3 0.2-1 0-1.8-0.2-0.8-0.3-1.4-0.7-0.6-0.5-1-1.2-0.3-0.7-0.3-1.7 0-1.1 0.6-1.9 0.5-0.8 1.4-1.2 0.8-0.5 1.8-0.7 1-0.2 1.8-0.2 0.7 0 1.2 0 0.6 0 1.2 0.1 0-1.6-0.6-2.4-0.7-0.8-2.4-0.8-0.9 0-1.9 0.3-0.9 0.4-1.6 0.9zm6.6 5.5q-0.3 0-0.7 0-0.3 0-0.7 0-0.4 0-1.1 0-0.8 0.1-1.4 0.3-0.7 0.3-1.2 0.7-0.5 0.5-0.5 1.3 0 0.5 0.2 0.8 0.2 0.4 0.6 0.7 0.3 0.2 0.7 0.3 0.4 0.2 0.8 0.2 1.6 0 2.5-0.9 0.8-1 0.8-2.3zm6.3-12h2.2v17.7h-2.2zm17 17.8h-2.2v-1.9q-0.5 1-1.6 1.6-1.1 0.6-2.4 0.6-2.3 0-3.4-1.4-1.1-1.4-1.1-3.8v-7.2h2.2v6.3q0 2.1 0.6 3.2 0.5 1 2 1.1 0.9 0 1.6-0.4 0.7-0.3 1.2-1 0.4-0.6 0.7-1.5 0.2-1 0.2-2.1v-5.6h2.2zm4.4-11.2q0.8-0.5 1.8-0.8 1-0.3 2.1-0.3 2.6 0 3.8 1.2 1.1 1.3 1.1 3.8v5q0 1 0 1.5 0 0.6 0.1 0.8h-2.1v-1.5q-0.2 0.2-0.6 0.6-0.3 0.3-0.8 0.6-0.4 0.2-1 0.4-0.6 0.2-1.4 0.2-1 0-1.8-0.2-0.8-0.2-1.4-0.7-0.6-0.4-0.9-1.2-0.3-0.7-0.3-1.7 0-1.1 0.5-1.9 0.6-0.7 1.4-1.2 0.9-0.4 1.9-0.6 1-0.2 1.8-0.2 0.7 0 1.2 0 0.5 0 1.2 0 0-1.6-0.7-2.3-0.6-0.8-2.3-0.8-1 0-1.9 0.3-0.9 0.3-1.6 0.9zm6.6 5.5q-0.4 0-0.7-0.1-0.4 0-0.7 0-0.5 0-1.2 0.1-0.7 0-1.4 0.3-0.7 0.2-1.1 0.7-0.5 0.4-0.5 1.2 0 0.5 0.2 0.9 0.2 0.3 0.5 0.6 0.3 0.2 0.7 0.4 0.4 0.1 0.8 0.1 1.7 0 2.5-0.9 0.9-0.9 0.9-2.3zm12.4-4.5h-3.2v6.6q0 1.1 0.5 1.6 0.6 0.6 1.4 0.6 0.5 0 0.8-0.1 0.4-0.2 0.7-0.4v1.9q-0.4 0.2-0.9 0.3-0.5 0.1-1 0.1-1.7 0-2.7-0.9-1-0.8-1-2.6v-7.1h-2.8v-1.8h2.8v-2.8l2.2-0.7v3.5h3.2zm5.4-4.5h-2.5v-2.5h2.5zm-2.3 2.7h2.2v12.1h-2.2zm5.5 6q0-1.4 0.4-2.5 0.4-1.2 1.3-2 0.8-0.9 1.9-1.3 1.1-0.5 2.5-0.5 1.4 0 2.5 0.5 1.2 0.4 2 1.3 0.8 0.8 1.2 2 0.5 1.1 0.5 2.5 0 1.3-0.5 2.5-0.4 1.1-1.2 2-0.8 0.8-2 1.3-1.1 0.5-2.5 0.5-1.3 0-2.5-0.5-1.1-0.5-1.9-1.3-0.8-0.9-1.3-2-0.4-1.2-0.4-2.5zm2.3 0q0 0.8 0.3 1.6 0.2 0.8 0.6 1.5 0.5 0.6 1.2 1 0.7 0.4 1.7 0.4 1 0 1.7-0.4 0.7-0.4 1.2-1 0.5-0.7 0.7-1.5 0.2-0.8 0.2-1.6 0-0.8-0.3-1.6-0.2-0.9-0.7-1.5-0.5-0.6-1.2-1-0.7-0.4-1.6-0.4-0.9 0-1.6 0.4-0.7 0.4-1.2 1-0.4 0.6-0.7 1.5-0.3 0.8-0.3 1.6zm13-6h2.1v1.9h0.1q0.5-1 1.6-1.6 1-0.6 2.3-0.6 2.4 0 3.5 1.4 1 1.3 1 3.8v7.2h-2.2v-6.3q0-2.1-0.5-3.2-0.6-1-2-1.1-1 0-1.7 0.4-0.7 0.3-1.1 1-0.5 0.6-0.7 1.6-0.2 0.9-0.2 2v5.6h-2.2z"/><path class="b" d="m260.4 40.4h62v17.6h-39.6v27.5h37.7v17.6h-37.7v48.9h-22.4zm143.7 0h25.3l43.8 111.6h-24.8l-9.6-25.6h-45.2l-9.8 25.6h-23.2zm12.3 22.4h-0.3l-16.1 46.1h32.6zm107.9-22.4h30.5q26.6-0.3 45.1 11.2 9.1 6.2 14.2 16.9 5.2 10.9 5.2 27.7 0 16.5-5.2 27.2-5.1 10.8-14.2 17.2-8.9 6.3-20.5 8.8-11.5 2.6-24.6 2.6h-30.5zm22.4 94h12.4q14.7 0 25.6-10.1 10.9-9.9 11.2-28.1-0.3-18.4-11.2-28.3-10.9-9.9-25.6-9.9h-12.4zm129.8-94h65.8v17.5h-43.5v27.5h39.9v17.6h-39.9v31.4h43.9v17.6h-66.2z"/><path class="c" d="m23.7 87.5l86.6-23 8.3 2.2-8.8-66.7z"/><path class="d" d="m79.1 107.1l2.6 10.5 28.9 5.7 84.3-16.5-83.2-17.5z"/><path class="e" d="m107.5 217.8l85.7-103.3-66.7 13.1z"/><path class="f" d="m118.7 129.1l-8.4 1.7-26.5-5.3 20.6 79.9z"/><path class="e" d="m194.9 106.8l4.1 0.8-5.8 6.9-66.7 13.1-19 90.2-3.1-12.4 14.3-76.3-8.4 1.7-26.5-5.3-2.1-7.9 28.8 5.7z"/><path class="g" d="m212.9 103.1l9.4-1.8-94.9-24.7 1.2 8.9z"/><path class="h" d="m128.6 85.5l-1.2-8.9-7.8-2.1 1.4 9.4z"/><path class="h" d="m121 83.9l-1.4-9.4-9.3-2.4-96.7 25.6-5 5.2 65.1 13-3.2-12.5 39.8-21.8z"/><path class="g" d="m13.6 97.7l-13 3.5 8 1.7z"/><path class="c" d="m94.5 196.4l-20.4-74.4-60.5-12.2z"/></svg>