<svg version="1.2" xmlns="http://www.w3.org/2000/svg" viewBox="0 0 614 604" width="1017" height="1000"><style>.a{fill:#00f688}.b{fill:#da5280}.c{fill:#ff5b7e}.d{fill:#e65b67}.e{fill:#c84b65}.f{fill:#00c8ff}.g{fill:#00c7ee}</style><path class="a" d="m64.1 243l239.8-63.7 23 5.9-24.4-184.5z"/><path class="b" d="m217.4 297l7.3 29.1 79.8 15.8 233.6-45.7-230.3-48.4z"/><path class="c" d="m296 603.5l237.4-285.7-184.7 36.1z"/><path class="d" d="m327.1 358l-23.4 4.7-73.1-14.7 56.9 221.2z"/><path class="e" d="m538.1 296.2l11.2 2.2-15.9 19.4-184.7 36.1-52.7 249.6-8.5-34.3 39.6-211.2-23.2 4.7-73.3-14.7-5.9-21.9 79.7 15.8z"/><path class="f" d="m587.9 286.1l26-5.1-262.8-68.3 3.4 24.8z"/><path class="g" d="m354.5 237.5l-3.4-24.8-21.6-5.7 3.9 26z"/><path class="g" d="m333.4 233l-3.8-26-25.7-6.7-267.8 70.9-13.6 14.2 180 36.2-8.7-34.7 109.9-60.2z"/><path class="f" d="m36.1 271.2l-36 9.6 22.4 4.6z"/><path class="a" d="m260.2 544.4l-56.5-206.1-167.6-33.6z"/></svg>